<?xml version="1.0" encoding="UTF-8"?>
<svg xmlns="http://www.w3.org/2000/svg" onmouseup="{ if(window.parent.document.onmouseup) window.parent.document.onmouseup(arguments[0]);}" viewBox="0 0 168.84 238.86" data-name="Layer 1" id="Layer_1" xmlns:xlink="http://www.w3.org/1999/xlink"><defs><style>.cls-1{fill:url(#radial-gradient);}.cls-2{fill:#8c98a0;}.cls-3{mix-blend-mode:screen;}.cls-4{fill:url(#linear-gradient);}.cls-5{fill:url(#linear-gradient-2);}.cls-6{fill:url(#linear-gradient-3);}.cls-7{fill:#15272a;}.cls-8{font-size:48px;fill:#333;font-family:Arial-BoldMT, Arial;font-weight:700;}</style><radialGradient id="radial-gradient" cx="23.94" cy="41.44" r="24.41" gradientTransform="translate(-0.01)" gradientUnits="userSpaceOnUse"><stop offset="0" stop-color="#fff"/><stop offset="1" stop-color="#b1bfc7"/></radialGradient><linearGradient id="linear-gradient" x1="24" y1="-0.06" x2="24" y2="31.93" gradientUnits="userSpaceOnUse"><stop offset="0" stop-color="#fff"/><stop offset="1"/></linearGradient><linearGradient xmlns:xlink="http://www.w3.org/1999/xlink" id="linear-gradient-2" x1="24" y1="1.22" x2="24" y2="33.2" xlink:href="#linear-gradient"/><linearGradient id="linear-gradient-3" x1="506.83" y1="-779.26" x2="506.83" y2="-762.32" gradientTransform="matrix(0, 1, 1, 0, 793.21, -481.83)" gradientUnits="userSpaceOnUse"><stop offset="0" stop-color="#706f71"/><stop offset="1" stop-color="#050607"/></linearGradient><symbol id="Bullet_3_-_Previous" data-name="Bullet 3 - Previous" viewBox="0 0 48 48"><path class="cls-1" d="M24,47.5A23.5,23.5,0,1,1,47.5,24,23.53,23.53,0,0,1,24,47.5Z"/><path class="cls-2" d="M24,1A23,23,0,1,1,1,24,23,23,0,0,1,24,1m0-1A24,24,0,1,0,48,24,24,24,0,0,0,24,0Z"/><g class="cls-3"><path class="cls-4" d="M24,4A22,22,0,0,1,46,25c0-.33,0-.66,0-1A22,22,0,1,0,2,24c0,.34,0,.67,0,1A22,22,0,0,1,24,4Z"/></g><g class="cls-3"><path class="cls-5" d="M24,27.3a46.33,46.33,0,0,0,21.91-5.17,22,22,0,0,0-43.83,0A46.33,46.33,0,0,0,24,27.3Z"/></g><polygon class="cls-6" points="12.7 25 31.03 14.42 31.03 35.58 12.7 25"/><path class="cls-7" d="M30.78,14.86V35.15L13.2,25,30.78,14.86m.5-.87L12.2,25,31.28,36V14Z"/></symbol></defs><title>back_button_captivate</title><use xmlns:xlink="http://www.w3.org/1999/xlink" width="48" height="48" transform="translate(0 0) scale(3.52 3.52)" xlink:href="#Bullet_3_-_Previous"/><text class="cls-8" transform="translate(15.09 220.79)">BACK</text></svg>