<?xml version="1.0" encoding="UTF-8"?>
<svg xmlns="http://www.w3.org/2000/svg" onmouseup="{ if(window.parent.document.onmouseup) window.parent.document.onmouseup(arguments[0]);}" viewBox="0 0 364.71 117.28" data-name="Layer 5" id="Layer_5"><defs><style>.cls-1{fill:#ed1b2e;}.cls-2{fill:#fff;}</style></defs><title>SClogo_nobox_white-red</title><polygon class="cls-1" points="51.95 92.33 85.28 117.28 318.53 67.37 51.95 92.33"/><path class="cls-2" d="M223,198.52h-.74v42h7.62V224.4h5.47c7.66,0,13-5.39,13-13.11h0a12.89,12.89,0,0,0-3.52-9.38,12.13,12.13,0,0,0-8.83-3.37Zm11.77,7.19a5.23,5.23,0,0,1,6,5.67c0,1.38-.44,5.89-6.06,5.89H230V205.71Z" transform="translate(-182.24 -190.78)"/><path class="cls-2" d="M229.18,239.83H223V199.26h13c7.27,0,11.62,5,11.61,12,0,7.22-4.94,12.38-12.28,12.38h-6.2ZM234.7,218c5,0,6.79-3.33,6.79-6.62s-1.76-6.5-6.69-6.41h-5.57v13Z" transform="translate(-182.24 -190.78)"/><path class="cls-2" d="M308.38,199.24v41.3h7.68V205.69h7.54a6.08,6.08,0,0,1,4.41,1.67,5.36,5.36,0,0,1,1.46,4,5.89,5.89,0,0,1-1.62,4.33c-1.2,1.15-3.07,1.69-5.56,1.62h-6.07l15.32,23.29h8.72L329,223.41c4.72-1.49,8.06-6.3,8.06-11.91,0-6.47-3.81-13-12.32-13H308.38Z" transform="translate(-182.24 -190.78)"/><path class="cls-2" d="M315.32,239.8h-6.21V199.24h15.69c7.59,0,11.58,5.66,11.58,12.26,0,6.09-3.92,10.57-8.47,11.5l11,16.83h-7L317.58,218h4.68c5.12.15,7.85-2.23,7.94-6.67.07-3.9-2.75-6.39-6.61-6.39h-8.27Z" transform="translate(-182.24 -190.78)"/><polygon class="cls-2" points="337.99 7.74 331.14 7.74 331.14 49.73 338.72 49.73 338.72 7.74 337.99 7.74"/><rect class="cls-2" x="331.88" y="8.48" width="6.11" height="40.52"/><path class="cls-2" d="M544.76,198.52h-8L520.9,218.09l16.33,22.42H547L530.18,218l16.14-19.53Z" transform="translate(-182.24 -190.78)"/><polygon class="cls-2" points="339.59 27.34 354.85 8.47 362.52 8.47 347.01 27.25 363.25 49 355.36 49 339.59 27.34"/><path class="cls-2" d="M255.68,219.55a21.36,21.36,0,0,0,6.3,15.2,22,22,0,0,0,31,0,21.51,21.51,0,0,0-.06-30.48,21.81,21.81,0,0,0-37.27,15.29Zm8-.05a15,15,0,0,1,4.1-10.37,13.42,13.42,0,0,1,19.37,0,15,15,0,0,1,4.1,10.37c0,8-6.18,14.5-13.78,14.5a13.39,13.39,0,0,1-9.66-4.16A15,15,0,0,1,263.71,219.5Z" transform="translate(-182.24 -190.78)"/><path class="cls-2" d="M277.49,198.58a21,21,0,0,0-21.08,21,20.63,20.63,0,0,0,6.09,14.68,21.24,21.24,0,0,0,30,0,20.78,20.78,0,0,0-.06-29.45A21,21,0,0,0,277.49,198.58Zm0,36.16a14.12,14.12,0,0,1-10.19-4.38,15.84,15.84,0,0,1,0-21.74,14.16,14.16,0,0,1,20.43,0A15.64,15.64,0,0,1,292,219.5C292,227.84,285.5,234.74,277.49,234.74Z" transform="translate(-182.24 -190.78)"/><path class="cls-2" d="M371.14,198.5H345.5v7.22h9.35v34.77h7.64V205.72h9.39V198.5Z" transform="translate(-182.24 -190.78)"/><polygon class="cls-2" points="164.89 8.46 163.99 8.46 163.99 9.36 163.99 13.37 163.99 14.21 164.89 14.21 173.34 14.21 173.34 48.08 173.34 48.98 174.24 48.98 178.61 48.98 179.51 48.98 179.51 48.08 179.51 14.21 188 14.21 188.9 14.21 188.9 13.31 188.9 9.36 188.9 8.46 188 8.46 164.89 8.46"/><path class="cls-2" d="M464,198.5h-7v15.72H440.48V198.5h-7.59v42h7.59v-19H457v19h7.7v-42Z" transform="translate(-182.24 -190.78)"/><polygon class="cls-2" points="275.52 8.46 275.52 24.18 257.5 24.18 257.5 8.46 251.39 8.46 251.39 48.98 257.5 48.98 257.5 29.98 275.52 29.98 275.52 48.98 281.75 48.97 281.75 8.46 275.52 8.46"/><path class="cls-2" d="M500.41,198.5H477.8v42h23.34v-7.28h-15.7V221.29h15.25V214H485.44v-8.23h15.7V198.5Z" transform="translate(-182.24 -190.78)"/><polygon class="cls-2" points="296.3 8.46 296.3 48.98 318.17 48.98 318.17 43.17 302.46 43.17 302.46 29.77 317.71 29.77 317.71 23.97 302.46 23.97 302.46 14.26 318.17 14.26 318.17 8.46 296.3 8.46"/><path class="cls-2" d="M381.36,215.79a25.14,25.14,0,0,0,7.29,17.68,25.62,25.62,0,0,0,18,7.42,24.94,24.94,0,0,0,14.47-4.75l.21-.15.31-.22v-10l-2.11,2.11a18.72,18.72,0,0,1-13.05,5.63,17,17,0,0,1-11.3-5,18.67,18.67,0,0,1-5.34-12.7A18.45,18.45,0,0,1,395,202.41a16.35,16.35,0,0,1,11.31-4.62,18.65,18.65,0,0,1,13.15,6l2.13,2.19v-10l-.5-.37a23.41,23.41,0,0,0-14.48-4.77C392,190.78,381.36,201.3,381.36,215.79Z" transform="translate(-182.24 -190.78)"/><path class="cls-2" d="M406.66,191.52c-14.28,0-24.56,10.14-24.56,24.27a24.42,24.42,0,0,0,7.07,17.16,24.92,24.92,0,0,0,17.49,7.2,24.18,24.18,0,0,0,14-4.62l.21-.15v-7.82l-.86.85a19.43,19.43,0,0,1-13.57,5.85A17.64,17.64,0,0,1,394.64,229a19.5,19.5,0,0,1-.11-27.15,17,17,0,0,1,11.82-4.84A19.47,19.47,0,0,1,420,203.24l.87.89v-7.84l-.21-.15A22.69,22.69,0,0,0,406.66,191.52Z" transform="translate(-182.24 -190.78)"/><path class="cls-2" d="M196.53,190.83h0c-8.18.12-14.18,5.49-14.29,12.76-.11,7.82,6,11.6,10.56,13.76l-.06,0,3.07,1.4.53.25c3.79,1.79,6.55,3.09,6.55,7.25,0,0,0,.09,0,.13-.06,4.2-3.24,7.15-7.9,7.33-4.31.18-9.73-2-11-3.85l-1.34-2,0,9.42.43.32c1.08.79,4.35,3.21,11.85,3.32a15.77,15.77,0,0,0,11.31-4.42,15.27,15.27,0,0,0,4.62-10.81c.11-8-5.5-11.7-11.59-14.48l-3-1.39c-3.51-1.64-6.19-3.14-6.15-6.11a5.15,5.15,0,0,1,1.65-3.83,7,7,0,0,1,4.64-1.88c5.34-.32,10,2.3,11,3.79l1.35,2,0-9.45-.3-.22C205.3,191.86,201.3,190.76,196.53,190.83Z" transform="translate(-182.24 -190.78)"/><path class="cls-2" d="M194.93,240.18c-7.6-.11-10.63-2.6-11.55-3.27l0-6.66c1.48,2.2,7.21,4.35,11.61,4.17,4.94-.2,8.54-3.39,8.61-8.06.07-5-3.43-6.38-7.51-8.31l-3-1.36c-5.18-2.45-10.23-6.11-10.13-13.08s5.93-11.92,13.56-12c6.27-.1,9.71,1.9,11.44,3.15l0,6.66c-1.18-1.75-6.17-4.45-11.68-4.12a7.73,7.73,0,0,0-5.1,2.09,5.85,5.85,0,0,0-1.88,4.34c-.05,3.63,3.51,5.35,6.58,6.79l3,1.39c5.71,2.6,11.27,6,11.16,13.8a14.53,14.53,0,0,1-4.39,10.3A15,15,0,0,1,194.93,240.18Z" transform="translate(-182.24 -190.78)"/></svg>