<?xml version="1.0" encoding="UTF-8"?>
<svg xmlns="http://www.w3.org/2000/svg" onmouseup="{ if(window.parent.document.onmouseup) window.parent.document.onmouseup(arguments[0]);}" viewBox="0 0 204.21 38.89" data-name="Layer 1" id="Layer_1"><defs><style>.cls-1{fill:#fff;}.cls-2{fill:#ee2d30;}</style></defs><title>ChekTech_Logo</title><path class="cls-1" d="M66,57.34c7.48,0,11.32,3.42,11.39,9.12l-6.57.8c-.07-3.11-1.61-4.16-4.82-4.16-5,0-5.8,4-5.8,8.42S61,79.95,66,79.95c3.21,0,4.75-1,4.82-4.16l6.57.8c-.07,5.7-3.91,9.12-11.39,9.12-9,0-12.33-5.7-12.33-14.19S57.05,57.34,66,57.34Z" transform="translate(-53.7 -52.32)"/><path class="cls-1" d="M102.55,57.9V85.16H96.09v-11H86.52v11H80.05V57.9h6.46V68.35h9.57V57.9Z" transform="translate(-53.7 -52.32)"/><path class="cls-1" d="M126,57.9v5.77H112.65v4.68h11.43v5.77H112.65v5.28h14v5.77H106.19V57.9Z" transform="translate(-53.7 -52.32)"/><path class="cls-2" d="M197.61,57.9v3.21H182.34v8.49h13.77v3.18H182.34v9.15h16v3.21H178.84V57.9Z" transform="translate(-53.7 -52.32)"/><path class="cls-2" d="M214.24,57.48c6.81,0,10,3.15,10.62,7.65l-3.56.38c-.52-3.39-2.73-4.86-7.06-4.86-6.57,0-8.28,5.07-8.28,10.87s1.71,10.87,8.28,10.87c4.33,0,6.54-1.47,7.06-4.86l3.56.38c-.59,4.51-3.81,7.65-10.62,7.65-8.28,0-11.88-5.52-11.88-14S206,57.48,214.24,57.48Z" transform="translate(-53.7 -52.32)"/><path class="cls-2" d="M250.13,57.9V85.16h-3.49V72.79H233V85.16h-3.49V57.9H233V69.61h13.63V57.9Z" transform="translate(-53.7 -52.32)"/><polygon class="cls-2" points="105.23 5.58 102.2 8.79 109.73 8.79 109.73 32.84 113.22 32.84 113.22 8.79 121.65 8.79 121.65 5.58 105.23 5.58"/><polygon class="cls-2" points="86.37 25.57 92.08 32.84 100.68 32.84 90.69 20.99 86.37 25.57"/><polygon class="cls-2" points="107.71 2.93 107.73 2.93 108.65 1.96 107.71 2.93"/><polygon class="cls-2" points="204.21 0 110.54 0 108.65 1.96 107.73 2.93 201.28 2.93 201.28 35.96 76.57 35.96 73.8 38.89 204.21 38.89 204.21 0"/><polygon class="cls-1" points="91.42 5.58 82.3 15.68 82.3 5.58 75.83 5.58 75.83 31.39 100.19 5.58 91.42 5.58"/></svg>